<svg width="83" height="30" viewBox="0 0 83 30" fill="none" xmlns="http://www.w3.org/2000/svg">
<path d="M0 14.9055H14.5614L21.8421 3L29.7053 14.9055H41.3544L47.1789 27L50.0912 14.9055H60.2842L65.2351 3L71.9333 14.9055H83" stroke="url(#paint0_linear_191_750)" stroke-width="2"/>
<path d="M7.93068 18.8049V11.1469L7.79068 9.74687L7.93068 8.89287H10.4507V12.6869H13.9367V8.89287H16.4567V14.1569L16.5967 15.1229V18.8049H13.9367V15.1089H10.4507V15.9489L10.5907 18.8049H7.93068ZM21.497 18.9449C20.7783 18.9449 20.139 18.8375 19.579 18.6229C19.019 18.4082 18.5803 18.0489 18.263 17.5449C17.9457 17.0409 17.787 16.3595 17.787 15.5009C17.787 14.8849 17.8897 14.3575 18.095 13.9189C18.3097 13.4802 18.5943 13.1255 18.949 12.8549C19.3037 12.5749 19.7003 12.3742 20.139 12.2529C20.5777 12.1222 21.0303 12.0569 21.497 12.0569C22.2997 12.0569 22.9157 12.1362 23.345 12.2949C23.7837 12.4535 24.073 12.5795 24.213 12.6729L24.913 14.8989L24.633 15.7669H20.293C20.3583 16.1122 20.531 16.4015 20.811 16.6349C21.091 16.8682 21.553 16.9849 22.197 16.9849C22.701 16.9849 23.135 16.9289 23.499 16.8169C23.863 16.7049 24.1477 16.6069 24.353 16.5229V18.3989C24.073 18.5482 23.667 18.6789 23.135 18.7909C22.6123 18.8935 22.0663 18.9449 21.497 18.9449ZM20.307 14.8709L22.239 14.5909L22.113 13.9889C22.0477 13.9515 21.9497 13.9235 21.819 13.9049C21.6977 13.8862 21.5903 13.8769 21.497 13.8769C21.2357 13.8769 21.0163 13.9329 20.839 14.0449C20.671 14.1569 20.5403 14.2922 20.447 14.4509C20.363 14.6002 20.3163 14.7402 20.307 14.8709ZM27.9037 18.9449C27.5023 18.9449 27.129 18.8889 26.7837 18.7769C26.4477 18.6555 26.177 18.4502 25.9717 18.1609C25.7663 17.8715 25.6637 17.4702 25.6637 16.9569C25.6637 16.4902 25.7803 16.1029 26.0137 15.7949C26.247 15.4869 26.5643 15.2582 26.9657 15.1089C27.367 14.9595 27.8197 14.8849 28.3237 14.8849C28.809 14.8849 29.173 14.9409 29.4157 15.0529C29.6583 15.1555 29.8683 15.2629 30.0457 15.3749L30.1437 15.2909C30.1437 15.0109 30.1203 14.7775 30.0737 14.5909C30.027 14.4042 29.9197 14.2642 29.7517 14.1709C29.5837 14.0682 29.3223 14.0169 28.9677 14.0169C28.6223 14.0169 28.2537 14.0495 27.8617 14.1149C27.479 14.1709 27.1243 14.2455 26.7977 14.3389C26.4803 14.4229 26.2423 14.5069 26.0837 14.5909V12.4909C26.373 12.3882 26.7837 12.2949 27.3157 12.2109C27.857 12.1175 28.5197 12.0709 29.3037 12.0709C30.1437 12.0709 30.8063 12.1782 31.2917 12.3929C31.7863 12.5982 32.141 12.9015 32.3557 13.3029C32.5703 13.6949 32.6777 14.1662 32.6777 14.7169V16.5789L32.9577 17.9929L32.6777 18.8189H30.2837V18.1329L30.1437 18.0629C30.069 18.1375 29.9383 18.2449 29.7517 18.3849C29.565 18.5249 29.3177 18.6555 29.0097 18.7769C28.7017 18.8889 28.333 18.9449 27.9037 18.9449ZM29.0937 17.1109C29.3457 17.1109 29.5603 17.0875 29.7377 17.0409C29.9243 16.9942 30.0597 16.9522 30.1437 16.9149V16.6489C30.1437 16.5275 30.055 16.4109 29.8777 16.2989C29.7097 16.1869 29.4437 16.1309 29.0797 16.1309C28.5757 16.1309 28.3237 16.3082 28.3237 16.6629C28.3237 16.8122 28.3797 16.9242 28.4917 16.9989C28.6037 17.0735 28.8043 17.1109 29.0937 17.1109ZM34.3691 18.8049V14.4229L34.0751 13.0229L34.3691 12.1829H36.2731L36.5531 12.5049C36.5531 12.5049 36.6185 12.4675 36.7491 12.3929C36.8798 12.3089 37.0618 12.2295 37.2951 12.1549C37.5378 12.0802 37.8178 12.0429 38.1351 12.0429C38.3218 12.0429 38.5085 12.0569 38.6951 12.0849C38.8818 12.1129 39.0265 12.1502 39.1291 12.1969L40.0391 12.9669L39.1291 14.7589L37.2811 13.9889L36.8611 14.1289V18.8049H34.3691ZM43.2986 18.9449C42.664 18.9449 42.1553 18.7582 41.7726 18.3849C41.39 18.0115 41.1986 17.5402 41.1986 16.9709V13.9189H40.1766V12.5889L41.0586 11.9029L42.0526 10.1669H43.7046V12.1969H45.6646V14.0169H43.7046V17.0129L45.6646 16.9989V18.5249C45.6646 18.5249 45.5526 18.5622 45.3286 18.6369C45.114 18.7022 44.8293 18.7675 44.4746 18.8329C44.12 18.9075 43.728 18.9449 43.2986 18.9449ZM47.1996 18.8049V11.1329L46.9196 9.73287L47.1996 8.89287H51.9596C53.0143 8.89287 53.8589 9.08887 54.4936 9.48087C55.1283 9.87287 55.4456 10.5075 55.4456 11.3849C55.4456 11.8235 55.3709 12.2202 55.2216 12.5749C55.0723 12.9295 54.8576 13.2049 54.5776 13.4009C55.2123 13.6062 55.6789 13.9189 55.9776 14.3389C56.2763 14.7589 56.4256 15.2582 56.4256 15.8369C56.4256 16.8542 56.1269 17.6055 55.5296 18.0909C54.9416 18.5669 54.0783 18.8049 52.9396 18.8049H47.1996ZM49.7196 12.7429H51.9316C52.2489 12.7429 52.4776 12.6682 52.6176 12.5189C52.7576 12.3695 52.8276 12.1735 52.8276 11.9309C52.8276 11.6229 52.7249 11.4129 52.5196 11.3009C52.3143 11.1889 52.0716 11.1329 51.7916 11.1329H49.7196V12.7429ZM49.7196 16.5649H52.5196C52.8556 16.5649 53.1029 16.5229 53.2616 16.4389C53.4296 16.3549 53.5369 16.2475 53.5836 16.1169C53.6396 15.9862 53.6676 15.8509 53.6676 15.7109C53.6676 15.4682 53.5789 15.2629 53.4016 15.0949C53.2336 14.9175 52.9863 14.8289 52.6596 14.8289H49.7196V16.5649ZM60.8994 18.9449C60.1807 18.9449 59.5414 18.8375 58.9814 18.6229C58.4214 18.4082 57.9827 18.0489 57.6654 17.5449C57.348 17.0409 57.1894 16.3595 57.1894 15.5009C57.1894 14.8849 57.292 14.3575 57.4974 13.9189C57.712 13.4802 57.9967 13.1255 58.3514 12.8549C58.706 12.5749 59.1027 12.3742 59.5414 12.2529C59.98 12.1222 60.4327 12.0569 60.8994 12.0569C61.702 12.0569 62.318 12.1362 62.7474 12.2949C63.186 12.4535 63.4754 12.5795 63.6154 12.6729L64.3154 14.8989L64.0354 15.7669H59.6954C59.7607 16.1122 59.9334 16.4015 60.2134 16.6349C60.4934 16.8682 60.9554 16.9849 61.5994 16.9849C62.1034 16.9849 62.5374 16.9289 62.9014 16.8169C63.2654 16.7049 63.55 16.6069 63.7554 16.5229V18.3989C63.4754 18.5482 63.0694 18.6789 62.5374 18.7909C62.0147 18.8935 61.4687 18.9449 60.8994 18.9449ZM59.7094 14.8709L61.6414 14.5909L61.5154 13.9889C61.45 13.9515 61.352 13.9235 61.2214 13.9049C61.1 13.8862 60.9927 13.8769 60.8994 13.8769C60.638 13.8769 60.4187 13.9329 60.2414 14.0449C60.0734 14.1569 59.9427 14.2922 59.8494 14.4509C59.7654 14.6002 59.7187 14.7402 59.7094 14.8709ZM67.306 18.9449C66.9047 18.9449 66.5313 18.8889 66.186 18.7769C65.85 18.6555 65.5793 18.4502 65.374 18.1609C65.1687 17.8715 65.066 17.4702 65.066 16.9569C65.066 16.4902 65.1827 16.1029 65.416 15.7949C65.6493 15.4869 65.9667 15.2582 66.368 15.1089C66.7693 14.9595 67.222 14.8849 67.726 14.8849C68.2113 14.8849 68.5753 14.9409 68.818 15.0529C69.0607 15.1555 69.2707 15.2629 69.448 15.3749L69.546 15.2909C69.546 15.0109 69.5227 14.7775 69.476 14.5909C69.4293 14.4042 69.322 14.2642 69.154 14.1709C68.986 14.0682 68.7247 14.0169 68.37 14.0169C68.0247 14.0169 67.656 14.0495 67.264 14.1149C66.8813 14.1709 66.5267 14.2455 66.2 14.3389C65.8827 14.4229 65.6447 14.5069 65.486 14.5909V12.4909C65.7753 12.3882 66.186 12.2949 66.718 12.2109C67.2593 12.1175 67.922 12.0709 68.706 12.0709C69.546 12.0709 70.2087 12.1782 70.694 12.3929C71.1887 12.5982 71.5433 12.9015 71.758 13.3029C71.9727 13.6949 72.08 14.1662 72.08 14.7169V16.5789L72.36 17.9929L72.08 18.8189H69.686V18.1329L69.546 18.0629C69.4713 18.1375 69.3407 18.2449 69.154 18.3849C68.9673 18.5249 68.72 18.6555 68.412 18.7769C68.104 18.8889 67.7353 18.9449 67.306 18.9449ZM68.496 17.1109C68.748 17.1109 68.9627 17.0875 69.14 17.0409C69.3267 16.9942 69.462 16.9522 69.546 16.9149V16.6489C69.546 16.5275 69.4573 16.4109 69.28 16.2989C69.112 16.1869 68.846 16.1309 68.482 16.1309C67.978 16.1309 67.726 16.3082 67.726 16.6629C67.726 16.8122 67.782 16.9242 67.894 16.9989C68.006 17.0735 68.2067 17.1109 68.496 17.1109ZM76.1795 18.9449C75.5448 18.9449 75.0361 18.7582 74.6535 18.3849C74.2708 18.0115 74.0795 17.5402 74.0795 16.9709V13.9189H73.0575V12.5889L73.9395 11.9029L74.9335 10.1669H76.5855V12.1969H78.5455V14.0169H76.5855V17.0129L78.5455 16.9989V18.5249C78.5455 18.5249 78.4335 18.5622 78.2095 18.6369C77.9948 18.7022 77.7101 18.7675 77.3555 18.8329C77.0008 18.9075 76.6088 18.9449 76.1795 18.9449Z" fill="black"/>
<defs>
<linearGradient id="paint0_linear_191_750" x1="-3.09199e-07" y1="15" x2="83" y2="15" gradientUnits="userSpaceOnUse">
<stop stop-color="#FF116A"/>
<stop offset="1" stop-color="#A01BCF"/>
</linearGradient>
</defs>
</svg>
