<svg width="234" height="94" viewBox="0 0 234 94" fill="none" xmlns="http://www.w3.org/2000/svg">
<path d="M0 46.1575H38.2456L57.3684 3L78.0211 46.1575H108.618L123.916 90L131.565 46.1575H158.337L171.34 3L188.933 46.1575H218" stroke="#646262" stroke-width="2"/>
<path d="M36.24 58V40.496L35.92 37.296L36.24 35.344H42V44.016H49.968V35.344H55.728V47.376L56.048 49.584V58H49.968V49.552H42V51.472L42.32 58H36.24ZM67.2488 58.32C65.6061 58.32 64.1448 58.0747 62.8648 57.584C61.5848 57.0933 60.5821 56.272 59.8568 55.12C59.1314 53.968 58.7688 52.4107 58.7688 50.448C58.7688 49.04 59.0034 47.8347 59.4728 46.832C59.9634 45.8293 60.6141 45.0187 61.4248 44.4C62.2354 43.76 63.1421 43.3013 64.1448 43.024C65.1474 42.7253 66.1821 42.576 67.2488 42.576C69.0834 42.576 70.4914 42.7573 71.4728 43.12C72.4754 43.4827 73.1368 43.7707 73.4568 43.984L75.0568 49.072L74.4167 51.056H64.4968C64.6461 51.8453 65.0408 52.5067 65.6808 53.04C66.3208 53.5733 67.3768 53.84 68.8488 53.84C70.0008 53.84 70.9928 53.712 71.8248 53.456C72.6568 53.2 73.3074 52.976 73.7768 52.784V57.072C73.1368 57.4133 72.2088 57.712 70.9928 57.968C69.7981 58.2027 68.5501 58.32 67.2488 58.32ZM64.5288 49.008L68.9448 48.368L68.6568 46.992C68.5074 46.9067 68.2834 46.8427 67.9848 46.8C67.7074 46.7573 67.4621 46.736 67.2488 46.736C66.6514 46.736 66.1501 46.864 65.7448 47.12C65.3608 47.376 65.0621 47.6853 64.8488 48.048C64.6568 48.3893 64.5501 48.7093 64.5288 49.008ZM81.8925 58.32C80.9752 58.32 80.1218 58.192 79.3325 57.936C78.5645 57.6587 77.9458 57.1893 77.4765 56.528C77.0072 55.8667 76.7725 54.9493 76.7725 53.776C76.7725 52.7093 77.0392 51.824 77.5725 51.12C78.1058 50.416 78.8312 49.8933 79.7485 49.552C80.6658 49.2107 81.7005 49.04 82.8525 49.04C83.9618 49.04 84.7938 49.168 85.3485 49.424C85.9032 49.6587 86.3832 49.904 86.7885 50.16L87.0125 49.968C87.0125 49.328 86.9592 48.7947 86.8525 48.368C86.7458 47.9413 86.5005 47.6213 86.1165 47.408C85.7325 47.1733 85.1352 47.056 84.3245 47.056C83.5352 47.056 82.6925 47.1307 81.7965 47.28C80.9218 47.408 80.1112 47.5787 79.3645 47.792C78.6392 47.984 78.0952 48.176 77.7325 48.368V43.568C78.3938 43.3333 79.3325 43.12 80.5485 42.928C81.7858 42.7147 83.3005 42.608 85.0925 42.608C87.0125 42.608 88.5272 42.8533 89.6365 43.344C90.7672 43.8133 91.5778 44.5067 92.0685 45.424C92.5592 46.32 92.8045 47.3973 92.8045 48.656V52.912L93.4445 56.144L92.8045 58.032H87.3325V56.464L87.0125 56.304C86.8418 56.4747 86.5432 56.72 86.1165 57.04C85.6898 57.36 85.1245 57.6587 84.4205 57.936C83.7165 58.192 82.8738 58.32 81.8925 58.32ZM84.6125 54.128C85.1885 54.128 85.6792 54.0747 86.0845 53.968C86.5112 53.8613 86.8205 53.7653 87.0125 53.68V53.072C87.0125 52.7947 86.8098 52.528 86.4045 52.272C86.0205 52.016 85.4125 51.888 84.5805 51.888C83.4285 51.888 82.8525 52.2933 82.8525 53.104C82.8525 53.4453 82.9805 53.7013 83.2365 53.872C83.4925 54.0427 83.9512 54.128 84.6125 54.128ZM96.6708 58V47.984L95.9988 44.784L96.6708 42.864H101.023L101.663 43.6C101.663 43.6 101.812 43.5147 102.111 43.344C102.409 43.152 102.825 42.9707 103.359 42.8C103.913 42.6293 104.553 42.544 105.279 42.544C105.705 42.544 106.132 42.576 106.559 42.64C106.985 42.704 107.316 42.7893 107.551 42.896L109.631 44.656L107.551 48.752L103.327 46.992L102.367 47.312V58H96.6708ZM117.081 58.32C115.63 58.32 114.468 57.8933 113.593 57.04C112.718 56.1867 112.281 55.1093 112.281 53.808V46.832H109.945V43.792L111.961 42.224L114.233 38.256H118.009V42.896H122.489V47.056H118.009V53.904L122.489 53.872V57.36C122.489 57.36 122.233 57.4453 121.721 57.616C121.23 57.7653 120.58 57.9147 119.769 58.064C118.958 58.2347 118.062 58.32 117.081 58.32ZM125.998 58V40.464L125.358 37.264L125.998 35.344H136.878C139.288 35.344 141.219 35.792 142.67 36.688C144.12 37.584 144.846 39.0347 144.846 41.04C144.846 42.0427 144.675 42.9493 144.334 43.76C143.992 44.5707 143.502 45.2 142.862 45.648C144.312 46.1173 145.379 46.832 146.062 47.792C146.744 48.752 147.086 49.8933 147.086 51.216C147.086 53.5413 146.403 55.2587 145.038 56.368C143.694 57.456 141.72 58 139.118 58H125.998ZM131.758 44.144H136.814C137.539 44.144 138.062 43.9733 138.382 43.632C138.702 43.2907 138.862 42.8427 138.862 42.288C138.862 41.584 138.627 41.104 138.158 40.848C137.688 40.592 137.134 40.464 136.494 40.464H131.758V44.144ZM131.758 52.88H138.158C138.926 52.88 139.491 52.784 139.854 52.592C140.238 52.4 140.483 52.1547 140.59 51.856C140.718 51.5573 140.782 51.248 140.782 50.928C140.782 50.3733 140.579 49.904 140.174 49.52C139.789 49.1147 139.224 48.912 138.478 48.912H131.758V52.88ZM157.311 58.32C155.669 58.32 154.207 58.0747 152.927 57.584C151.647 57.0933 150.645 56.272 149.919 55.12C149.194 53.968 148.831 52.4107 148.831 50.448C148.831 49.04 149.066 47.8347 149.535 46.832C150.026 45.8293 150.677 45.0187 151.487 44.4C152.298 43.76 153.205 43.3013 154.207 43.024C155.21 42.7253 156.245 42.576 157.311 42.576C159.146 42.576 160.554 42.7573 161.535 43.12C162.538 43.4827 163.199 43.7707 163.519 43.984L165.119 49.072L164.479 51.056H154.559C154.709 51.8453 155.103 52.5067 155.743 53.04C156.383 53.5733 157.439 53.84 158.911 53.84C160.063 53.84 161.055 53.712 161.887 53.456C162.719 53.2 163.37 52.976 163.839 52.784V57.072C163.199 57.4133 162.271 57.712 161.055 57.968C159.861 58.2027 158.613 58.32 157.311 58.32ZM154.591 49.008L159.007 48.368L158.719 46.992C158.57 46.9067 158.346 46.8427 158.047 46.8C157.77 46.7573 157.525 46.736 157.311 46.736C156.714 46.736 156.213 46.864 155.807 47.12C155.423 47.376 155.125 47.6853 154.911 48.048C154.719 48.3893 154.613 48.7093 154.591 49.008ZM171.955 58.32C171.038 58.32 170.184 58.192 169.395 57.936C168.627 57.6587 168.008 57.1893 167.539 56.528C167.07 55.8667 166.835 54.9493 166.835 53.776C166.835 52.7093 167.102 51.824 167.635 51.12C168.168 50.416 168.894 49.8933 169.811 49.552C170.728 49.2107 171.763 49.04 172.915 49.04C174.024 49.04 174.856 49.168 175.411 49.424C175.966 49.6587 176.446 49.904 176.851 50.16L177.075 49.968C177.075 49.328 177.022 48.7947 176.915 48.368C176.808 47.9413 176.563 47.6213 176.179 47.408C175.795 47.1733 175.198 47.056 174.387 47.056C173.598 47.056 172.755 47.1307 171.859 47.28C170.984 47.408 170.174 47.5787 169.427 47.792C168.702 47.984 168.158 48.176 167.795 48.368V43.568C168.456 43.3333 169.395 43.12 170.611 42.928C171.848 42.7147 173.363 42.608 175.155 42.608C177.075 42.608 178.59 42.8533 179.699 43.344C180.83 43.8133 181.64 44.5067 182.131 45.424C182.622 46.32 182.867 47.3973 182.867 48.656V52.912L183.507 56.144L182.867 58.032H177.395V56.464L177.075 56.304C176.904 56.4747 176.606 56.72 176.179 57.04C175.752 57.36 175.187 57.6587 174.483 57.936C173.779 58.192 172.936 58.32 171.955 58.32ZM174.675 54.128C175.251 54.128 175.742 54.0747 176.147 53.968C176.574 53.8613 176.883 53.7653 177.075 53.68V53.072C177.075 52.7947 176.872 52.528 176.467 52.272C176.083 52.016 175.475 51.888 174.643 51.888C173.491 51.888 172.915 52.2933 172.915 53.104C172.915 53.4453 173.043 53.7013 173.299 53.872C173.555 54.0427 174.014 54.128 174.675 54.128ZM192.237 58.32C190.787 58.32 189.624 57.8933 188.749 57.04C187.875 56.1867 187.437 55.1093 187.437 53.808V46.832H185.101V43.792L187.117 42.224L189.389 38.256H193.165V42.896H197.645V47.056H193.165V53.904L197.645 53.872V57.36C197.645 57.36 197.389 57.4453 196.877 57.616C196.387 57.7653 195.736 57.9147 194.925 58.064C194.115 58.2347 193.219 58.32 192.237 58.32Z" fill="black"/>
</svg>
