<svg width="34" height="34" viewBox="0 0 34 34" fill="none" xmlns="http://www.w3.org/2000/svg">
<path fill-rule="evenodd" clip-rule="evenodd" d="M11.0109 2.01721C8.80176 1.8681 6.22082 2.65665 3.76982 5.59466C2.14876 7.53781 1.74158 9.6624 2.14367 11.8997C2.55271 14.1758 3.80524 16.5806 5.54302 18.972C8.9118 23.608 13.9201 27.9523 17.3658 30.9025C20.7424 27.9948 25.4851 23.7156 28.6587 19.1432C30.332 16.7324 31.5247 14.3015 31.8857 11.9969C32.241 9.72821 31.7956 7.56733 30.15 5.59466C27.699 2.65665 25.118 1.8681 22.9089 2.01721C20.6472 2.16987 18.6721 3.31428 17.5379 4.40646L16.9599 4.96309L16.3819 4.40646C15.2477 3.31428 13.2726 2.16987 11.0109 2.01721ZM16.9599 2.6956C15.5653 1.56271 13.4937 0.514332 11.1232 0.354331C8.34627 0.1669 5.25972 1.20697 2.49002 4.527C0.519136 6.88949 0.0238734 9.52698 0.503284 12.1945C0.97574 14.8234 2.38867 17.4663 4.19473 19.9518C7.79641 24.9083 13.1563 29.4943 16.5788 32.4226L17.3666 33.0969L17.9085 32.6331C21.2936 29.7359 26.5431 25.1143 30.0279 20.0935C31.7706 17.5827 33.1163 14.9107 33.5323 12.2548C33.9538 9.56312 33.4145 6.90604 31.4298 4.527C28.6601 1.20697 25.5735 0.1669 22.7966 0.354331C20.4261 0.514332 18.3545 1.56271 16.9599 2.6956Z" fill="black"/>
</svg>
