<svg width="40" height="40" viewBox="0 0 40 40" fill="none" xmlns="http://www.w3.org/2000/svg">
<path fill-rule="evenodd" clip-rule="evenodd" d="M14.0112 5.01724C11.802 4.86813 9.22106 5.65667 6.77006 8.59468C5.14901 10.5378 4.74182 12.6624 5.14391 14.8998C5.55296 17.1758 6.80548 19.5806 8.54327 21.9721C11.912 26.6081 16.9203 30.9523 20.3661 33.9025C23.7426 30.9948 28.4853 26.7156 31.659 22.1432C33.3322 19.7325 34.525 17.3015 34.8859 14.997C35.2412 12.7282 34.7959 10.5673 33.1502 8.59468C30.6992 5.65667 28.1183 4.86813 25.9091 5.01724C23.6474 5.16989 21.6723 6.31431 20.5382 7.40648L19.9601 7.96311L19.3821 7.40648C18.2479 6.31431 16.2729 5.16989 14.0112 5.01724ZM19.9601 5.69563C18.5655 4.56273 16.4939 3.51435 14.1234 3.35435C11.3465 3.16692 8.25996 4.20699 5.49026 7.52702C3.51938 9.88951 3.02412 12.527 3.50353 15.1946C3.97598 17.8234 5.38891 20.4664 7.19498 22.9518C10.7967 27.9083 16.1566 32.4943 19.5791 35.4227L20.3669 36.0969L20.9087 35.6331C24.2938 32.736 29.5433 28.1143 33.0281 23.0935C34.7709 20.5827 36.1166 17.9108 36.5325 15.2548C36.9541 12.5631 36.4147 9.90606 34.43 7.52702C31.6603 4.20699 28.5738 3.16692 25.7969 3.35435C23.4264 3.51435 21.3547 4.56273 19.9601 5.69563Z" fill="black"/>
<circle cx="13.5" cy="14.5" r="9.5" fill="black"/>
<circle cx="26.5" cy="14.5" r="9.5" fill="black"/>
<path d="M20.4645 35.1441L4.8373 18.0495L35.7467 17.7403L20.4645 35.1441Z" fill="black"/>
<rect x="10.1636" y="20" width="10" height="3" transform="rotate(46.1518 10.1636 20)" fill="black"/>
<rect x="29.1787" y="22" width="2" height="6" transform="rotate(31.9929 29.1787 22)" fill="black"/>
</svg>
